<?xml version="1.0" encoding="UTF-8"?><svg id="Laag_1" xmlns="http://www.w3.org/2000/svg" viewBox="0 0 73.77 16.29"><defs><style>.cls-1{fill:#ffbeb4;}</style></defs><path class="cls-1" d="M5.56,3.73c.28,0,.51,.09,.69,.27,.18,.18,.28,.41,.28,.68s-.09,.51-.28,.68c-.18,.18-.42,.27-.69,.27H.97c-.28,0-.51-.09-.69-.27-.18-.18-.28-.41-.28-.68s.09-.51,.28-.68c.18-.18,.42-.27,.69-.27H5.56Zm-.19-3.73c.25,0,.5,.03,.75,.1,.24,.07,.44,.18,.61,.34,.16,.16,.24,.36,.24,.62,0,.29-.08,.52-.25,.68-.17,.17-.36,.25-.58,.25-.1,0-.26-.03-.47-.08s-.41-.08-.61-.08c-.29,0-.51,.06-.67,.19-.16,.13-.26,.27-.32,.44-.06,.17-.09,.31-.09,.44V11.77c0,.3-.1,.55-.29,.75-.2,.2-.44,.3-.75,.3s-.55-.1-.75-.3c-.2-.2-.29-.45-.29-.75V2.93c0-.82,.29-1.51,.87-2.08,.58-.57,1.44-.85,2.6-.85Z"/><path class="cls-1" d="M15.08,3.38c.3,0,.55,.1,.75,.29,.2,.2,.29,.45,.29,.76v7.33c0,.3-.1,.55-.29,.75-.2,.2-.44,.3-.75,.3s-.55-.1-.75-.3c-.2-.2-.29-.45-.29-.75v-.85l.38,.16c0,.15-.08,.33-.24,.55-.16,.21-.38,.42-.66,.63-.28,.21-.6,.38-.98,.53-.38,.14-.78,.22-1.22,.22-.8,0-1.52-.2-2.17-.62-.65-.41-1.16-.98-1.53-1.7-.38-.72-.56-1.55-.56-2.49s.19-1.78,.56-2.5c.38-.72,.88-1.29,1.52-1.7,.64-.41,1.34-.62,2.11-.62,.5,0,.95,.08,1.37,.23,.42,.15,.78,.34,1.08,.57,.31,.23,.54,.47,.71,.7,.17,.24,.25,.44,.25,.6l-.62,.23v-1.27c0-.3,.1-.55,.29-.75,.2-.2,.44-.3,.75-.3Zm-3.5,7.71c.51,0,.95-.13,1.33-.38,.38-.25,.68-.6,.89-1.04,.21-.44,.32-.93,.32-1.47s-.11-1.05-.32-1.49c-.21-.44-.51-.79-.89-1.04-.38-.25-.83-.38-1.33-.38s-.94,.13-1.32,.38c-.38,.25-.68,.6-.89,1.04-.21,.44-.32,.94-.32,1.49s.11,1.03,.32,1.47c.21,.44,.51,.79,.89,1.04,.38,.25,.82,.38,1.32,.38Z"/><path class="cls-1" d="M19.27,2.43c-.39,0-.67-.06-.83-.19-.16-.13-.24-.35-.24-.68v-.33c0-.33,.09-.56,.27-.68,.18-.12,.45-.18,.82-.18,.4,0,.69,.06,.85,.19,.16,.13,.24,.35,.24,.68v.33c0,.34-.09,.56-.26,.68-.17,.12-.46,.18-.85,.18Zm1.06,9.34c0,.3-.1,.55-.29,.75-.2,.2-.44,.3-.75,.3s-.55-.1-.75-.3c-.2-.2-.29-.45-.29-.75V4.61c0-.3,.1-.55,.29-.75,.2-.2,.44-.3,.75-.3s.55,.1,.75,.3c.2,.2,.29,.45,.29,.75v7.16Z"/><path class="cls-1" d="M23.85,12.82c-.3,0-.55-.1-.75-.3-.2-.2-.29-.45-.29-.75V4.61c0-.3,.1-.55,.29-.75,.2-.2,.44-.3,.75-.3s.55,.1,.75,.3c.2,.2,.29,.45,.29,.75v1.63l-.12-1.16c.13-.28,.29-.52,.49-.74,.2-.21,.43-.39,.68-.54,.25-.14,.53-.25,.81-.32,.29-.07,.58-.1,.87-.1,.35,0,.64,.1,.88,.29,.24,.2,.36,.43,.36,.69,0,.38-.1,.66-.29,.82-.2,.17-.41,.25-.64,.25s-.42-.04-.6-.12c-.18-.08-.38-.12-.62-.12-.21,0-.42,.05-.63,.15-.21,.1-.41,.25-.59,.46-.18,.21-.32,.47-.43,.77-.11,.31-.16,.67-.16,1.08v4.11c0,.3-.1,.55-.29,.75-.2,.2-.44,.3-.75,.3Z"/><path class="cls-1" d="M36.86,3.55c.3,0,.55,.1,.75,.3,.2,.2,.29,.45,.29,.75v7.37c0,1.06-.2,1.91-.6,2.54-.4,.63-.93,1.08-1.6,1.36-.67,.28-1.42,.42-2.25,.42-.37,0-.76-.03-1.18-.09-.42-.06-.76-.14-1.02-.26-.35-.15-.59-.34-.72-.56-.13-.23-.16-.47-.08-.72,.1-.34,.27-.56,.5-.68,.23-.12,.47-.14,.73-.04,.18,.06,.43,.15,.73,.27,.3,.12,.65,.18,1.04,.18,.53,0,.97-.07,1.33-.22,.35-.14,.62-.39,.8-.73,.18-.34,.27-.81,.27-1.4v-1.16l.36,.42c-.2,.38-.44,.7-.74,.94-.29,.25-.64,.44-1.05,.56-.4,.13-.87,.19-1.39,.19-.61,0-1.15-.14-1.6-.42-.46-.28-.81-.68-1.07-1.18-.25-.5-.38-1.08-.38-1.72V4.61c0-.3,.1-.55,.29-.75,.2-.2,.44-.3,.75-.3s.55,.1,.75,.3c.2,.2,.29,.45,.29,.75v4.44c0,.75,.16,1.28,.49,1.59,.33,.31,.79,.46,1.38,.46,.4,0,.75-.08,1.02-.23,.28-.16,.49-.39,.64-.69,.15-.31,.23-.68,.23-1.12V4.61c0-.3,.1-.55,.29-.75,.2-.2,.44-.3,.75-.3Z"/><path class="cls-1" d="M43.84,3.38c.66,0,1.23,.07,1.72,.21,.49,.14,.87,.33,1.14,.58,.27,.25,.41,.55,.41,.89,0,.23-.07,.45-.21,.65-.14,.2-.34,.3-.61,.3-.18,0-.34-.03-.46-.08-.12-.05-.23-.12-.32-.2-.09-.08-.2-.16-.33-.23-.12-.07-.29-.12-.53-.16-.24-.04-.41-.06-.53-.06-.59,0-1.09,.13-1.5,.38-.41,.25-.73,.6-.94,1.03-.22,.43-.33,.93-.33,1.5s.11,1.05,.34,1.48c.23,.43,.54,.78,.94,1.03,.4,.25,.86,.38,1.38,.38,.29,0,.54-.02,.75-.05s.38-.09,.52-.16c.16-.09,.31-.19,.43-.29,.13-.1,.32-.16,.57-.16,.3,0,.53,.1,.69,.29,.16,.19,.24,.42,.24,.7s-.16,.55-.49,.79c-.32,.24-.75,.43-1.27,.57-.53,.14-1.09,.22-1.71,.22-.91,0-1.7-.21-2.37-.63-.67-.42-1.19-1-1.55-1.72-.36-.73-.55-1.54-.55-2.44,0-.95,.19-1.78,.58-2.5,.39-.72,.92-1.29,1.61-1.7,.69-.41,1.48-.62,2.37-.62Z"/><path class="cls-1" d="M55.97,3.38c.3,0,.55,.1,.75,.29,.2,.2,.29,.45,.29,.76v7.33c0,.3-.1,.55-.29,.75-.2,.2-.44,.3-.75,.3s-.55-.1-.75-.3c-.2-.2-.29-.45-.29-.75v-.85l.38,.16c0,.15-.08,.33-.24,.55-.16,.21-.38,.42-.66,.63-.28,.21-.6,.38-.98,.53-.38,.14-.78,.22-1.22,.22-.8,0-1.52-.2-2.17-.62-.65-.41-1.16-.98-1.53-1.7-.38-.72-.56-1.55-.56-2.49s.19-1.78,.56-2.5c.38-.72,.88-1.29,1.52-1.7,.64-.41,1.34-.62,2.11-.62,.5,0,.95,.08,1.37,.23,.42,.15,.78,.34,1.08,.57,.31,.23,.54,.47,.71,.7,.17,.24,.25,.44,.25,.6l-.62,.23v-1.27c0-.3,.1-.55,.29-.75,.2-.2,.44-.3,.75-.3Zm-3.5,7.71c.51,0,.95-.13,1.33-.38,.38-.25,.68-.6,.89-1.04,.21-.44,.32-.93,.32-1.47s-.11-1.05-.32-1.49c-.21-.44-.51-.79-.89-1.04-.38-.25-.83-.38-1.33-.38s-.94,.13-1.32,.38c-.38,.25-.68,.6-.89,1.04-.21,.44-.32,.94-.32,1.49s.11,1.03,.32,1.47c.21,.44,.51,.79,.89,1.04,.38,.25,.82,.38,1.32,.38Z"/><path class="cls-1" d="M59.96,12.82c-.3,0-.55-.1-.75-.3-.2-.2-.29-.45-.29-.75V4.61c0-.3,.1-.55,.29-.75,.2-.2,.44-.3,.75-.3s.55,.1,.75,.3c.2,.2,.29,.45,.29,.75v1.63l-.12-1.16c.13-.28,.29-.52,.49-.74,.2-.21,.43-.39,.68-.54,.25-.14,.53-.25,.81-.32,.29-.07,.58-.1,.87-.1,.35,0,.64,.1,.88,.29,.24,.2,.36,.43,.36,.69,0,.38-.1,.66-.29,.82-.2,.17-.41,.25-.64,.25s-.42-.04-.6-.12c-.18-.08-.38-.12-.62-.12-.21,0-.42,.05-.63,.15-.21,.1-.41,.25-.59,.46-.18,.21-.32,.47-.43,.77-.11,.31-.16,.67-.16,1.08v4.11c0,.3-.1,.55-.29,.75-.2,.2-.44,.3-.75,.3Z"/><path class="cls-1" d="M69.73,13c-.98,0-1.83-.2-2.56-.62-.72-.41-1.28-.97-1.66-1.67-.39-.7-.58-1.5-.58-2.39,0-1.04,.21-1.93,.63-2.66,.42-.73,.97-1.3,1.65-1.69,.68-.39,1.4-.59,2.17-.59,.59,0,1.15,.12,1.67,.36,.53,.24,.99,.57,1.4,1,.4,.42,.72,.91,.96,1.46,.24,.55,.36,1.14,.36,1.77-.01,.28-.12,.5-.33,.68-.21,.17-.45,.26-.73,.26h-6.62l-.52-1.73h6.36l-.38,.35v-.47c-.02-.33-.14-.64-.36-.9-.21-.27-.48-.48-.8-.63-.32-.16-.66-.23-1.01-.23s-.67,.05-.97,.14c-.3,.09-.56,.25-.78,.47-.22,.22-.39,.51-.52,.88-.13,.37-.19,.84-.19,1.4,0,.62,.13,1.15,.39,1.59,.26,.43,.59,.76,1.01,.99,.41,.23,.85,.34,1.31,.34,.43,0,.77-.03,1.02-.1,.25-.07,.46-.15,.62-.25,.16-.1,.3-.18,.42-.25,.21-.1,.4-.16,.59-.16,.25,0,.46,.09,.63,.26,.17,.17,.25,.38,.25,.61,0,.31-.16,.6-.49,.85-.3,.25-.72,.48-1.26,.67-.54,.19-1.1,.29-1.68,.29Z"/></svg>