<?xml version="1.0" encoding="utf-8"?>
<!-- Generator: Adobe Illustrator 26.3.1, SVG Export Plug-In . SVG Version: 6.00 Build 0)  -->
<svg version="1.1" id="Laag_1" xmlns="http://www.w3.org/2000/svg" xmlns:xlink="http://www.w3.org/1999/xlink" x="0px" y="0px"
	 viewBox="0 0 595.28 419.53" style="enable-background:new 0 0 595.28 419.53;" xml:space="preserve">
<style type="text/css">
	.st0{fill:#FFBEB4;}
	.st1{fill:#EF9D94;}
	.st2{fill:#FFF8C4;}
	.st3{fill:#FCE271;}
	.st4{fill:#634E42;}
</style>
<g>
	<g>
		<path class="st0" d="M304.26,33.7c0,0-6.61-19.82,15.69-16.51c21.48,3.18,57.66,14.42,76.39,76.16c1.33,4.38,2.72,8.75,4.28,13.05
			c2.25,6.22,5.81,17.06,8.83,30.62c2.1,9.4,2.89,19.05,2.1,28.65c-0.51,6.15-1.52,9.96-4.07,16.66
			c-6.61,17.34-15.69,18.17-11.56,50.37s2.29,63.09-35.51,80.92c-43.76,20.64-85.74,27.49-105.69,39.63
			c-18.99,11.56-42.11,42.94-42.11,42.94s2.48-23.12-5.78-45.41c-6.08-16.42-13.06-26.12-14.33-55.84
			c-0.87-20.38,2.57-40.69,9.66-59.81c4.54-12.26,8.87-28.65,7.15-43.7c-3.3-28.9-21.64-56.83-12.06-96.12
			c9.58-39.29,49.22-64.78,61.19-70.2C270.4,19.66,297.65,9.75,304.26,33.7z"/>
		<path class="st1" d="M212.61,399c-0.34,0-0.69-0.06-1.02-0.19c-1.19-0.46-1.92-1.66-1.78-2.92c0.02-0.23,2.3-22.76-5.62-44.13
			c-1.25-3.37-2.55-6.5-3.82-9.53c-4.97-11.9-9.66-23.15-10.69-47.17c-0.88-20.44,2.43-40.94,9.83-60.91
			c4.13-11.14,8.69-27.54,6.99-42.4c-1.06-9.28-3.72-18.48-6.53-28.21c-5.66-19.6-12.08-41.82-5.47-68.9
			c9.78-40.08,49.59-66.13,62.77-72.1c11.12-5.03,26.72-9.94,37.9-4.7c2.38,1.11,4.45,2.62,6.2,4.52c0.45-1.32,1.13-2.61,2.1-3.77
			c3.31-3.94,8.99-5.34,16.89-4.17c38.73,5.74,64.46,31.29,78.67,78.13c1.55,5.1,2.89,9.2,4.23,12.91
			c2.42,6.69,5.92,17.49,8.93,30.96c2.22,9.98,2.95,19.9,2.16,29.5c-0.51,6.15-1.5,10.23-4.25,17.43c-1.9,5-4.03,8.72-5.9,12.01
			c-4.67,8.18-8.36,14.64-5.49,37c4.16,32.48,2.55,65.12-37.1,83.82c-22.92,10.81-44.92,17.73-64.32,23.83
			c-17.08,5.37-31.82,10.01-41.11,15.66c-18.29,11.14-41.08,41.89-41.31,42.2C214.33,398.59,213.48,399,212.61,399z M283.92,21.17
			c-8.01,0-17.15,3.23-24.33,6.48c-10.2,4.62-50.21,29.75-59.62,68.3c-6.25,25.63-0.32,46.15,5.41,66
			c2.88,9.97,5.6,19.38,6.71,29.13c1.83,15.97-2.96,33.29-7.31,45c-7.14,19.27-10.33,39.02-9.49,58.71
			c0.99,23.02,5.49,33.82,10.26,45.25c1.29,3.08,2.61,6.26,3.9,9.74c5.29,14.27,6.31,28.71,6.32,37.68
			c8.06-10.07,23.66-28.23,37.47-36.63c9.87-6.01,24.92-10.74,42.35-16.22c19.23-6.05,41.03-12.9,63.61-23.55
			c34.36-16.21,38.41-42.91,33.91-78.01c-3.11-24.23,1.2-31.77,6.19-40.51c1.86-3.26,3.78-6.63,5.53-11.22
			c2.56-6.71,3.43-10.28,3.9-15.89c0.75-9.03,0.06-18.38-2.04-27.8c-2.94-13.18-6.37-23.74-8.73-30.28c-1.37-3.81-2.75-8-4.32-13.19
			c-13.51-44.54-37.75-68.81-74.11-74.19c-4.01-0.59-9.3-0.69-11.75,2.22c-2.56,3.05-1.45,8.37-1.01,10.07
			c0.07,0.23,0.13,0.45,0.2,0.68c0.41,1.47-0.43,3-1.9,3.44c-1.46,0.45-3.01-0.36-3.49-1.8c-0.02-0.06-0.12-0.36-0.25-0.84
			c-1.62-5.34-4.42-8.88-8.56-10.82C290.14,21.69,287.12,21.17,283.92,21.17z"/>
	</g>
	<g>
		<path class="st2" d="M374.03,116.72l53.26-35.96c0,0-16.77,68.08-57.51,67.07C369.78,147.84,374.44,139.47,374.03,116.72z"/>
		<path class="st3" d="M370.69,150.66c-0.33,0-0.66,0-0.99-0.01c-0.99-0.02-1.89-0.56-2.38-1.42c-0.49-0.86-0.49-1.91-0.01-2.77
			c0.03-0.06,4.29-8.27,3.9-29.69c-0.02-0.95,0.45-1.85,1.24-2.39l53.26-35.96c0.97-0.65,2.23-0.64,3.19,0.02s1.4,1.85,1.12,2.98
			C429.32,84.29,412.49,150.66,370.69,150.66z M376.87,118.21c0.12,13.61-1.59,22.08-2.97,26.66c27.69-2.79,43.08-40.96,48.45-57.37
			L376.87,118.21z"/>
	</g>
	<g>
		<path class="st2" d="M228.99,116.72l-53.26-35.96c0,0,16.77,68.08,57.51,67.07C233.25,147.84,228.58,139.47,228.99,116.72z"/>
		<path class="st3" d="M232.33,150.66c-41.8,0-58.63-66.38-59.33-69.23c-0.28-1.13,0.17-2.32,1.12-2.98
			c0.96-0.67,2.22-0.68,3.19-0.02l53.26,35.96c0.79,0.53,1.26,1.43,1.24,2.39c-0.39,21.42,3.87,29.63,3.91,29.71
			c0.46,0.86,0.45,1.91-0.04,2.76c-0.49,0.84-1.38,1.39-2.36,1.41C232.99,150.66,232.66,150.66,232.33,150.66z M180.68,87.5
			c5.38,16.41,20.79,54.57,48.45,57.37c-1.38-4.58-3.08-13.05-2.97-26.66L180.68,87.5z"/>
	</g>
	<g>
		<path class="st2" d="M360.09,74.67c9.7,12.58,15.46,28.35,15.46,45.47c0,41.18-33.38,74.56-74.56,74.56s-74.56-33.38-74.56-74.56
			c0-18.58,6.79-35.57,18.03-48.62"/>
		<path class="st3" d="M300.98,197.52c-42.67,0-77.38-34.71-77.38-77.38c0-18.52,6.65-36.44,18.71-50.46l4.27,3.68
			c-11.19,13-17.35,29.61-17.35,46.78c0,39.56,32.19,71.75,71.75,71.75c39.56,0,71.75-32.19,71.75-71.75
			c0-15.99-5.14-31.11-14.88-43.75l4.46-3.44c10.5,13.63,16.05,29.95,16.05,47.19C378.37,162.81,343.65,197.52,300.98,197.52z"/>
	</g>
	<g>
		<circle class="st4" cx="258.43" cy="129.67" r="6.19"/>
	</g>
	<g>
		<circle class="st4" cx="341.83" cy="129.07" r="6.19"/>
	</g>
	<g>
		<path class="st0" d="M365.36,71.68c14.86,18.17,14.86,28.9,14.86,28.9c-17.34,5.78-38.4,4.78-38.4,4.78L330.94,87.3l-8.52,18.23
			c-57.8,9.91-106.52-6.61-106.52-6.61c4.13-19.82,18.17-33.03,18.17-33.03"/>
		<path class="st1" d="M284.62,111.49c-39.85,0-69.24-9.76-69.62-9.89c-1.35-0.46-2.14-1.85-1.85-3.24
			c4.26-20.45,18.39-33.94,18.99-34.5c1.13-1.06,2.91-1.01,3.98,0.12c1.07,1.13,1.02,2.91-0.11,3.98
			c-0.13,0.12-12.28,11.76-16.76,29.06c10.4,3.05,52.68,13.96,101.25,5.99l7.89-16.89c0.44-0.94,1.37-1.57,2.4-1.62
			c1.04-0.04,2.02,0.47,2.56,1.36l10.09,16.74c4.77,0.08,20.13,0,33.66-3.98c-0.78-3.72-3.63-12.55-13.93-25.14
			c-0.98-1.2-0.81-2.98,0.4-3.96c1.21-0.99,2.98-0.81,3.97,0.4c15.32,18.73,15.5,30.2,15.5,30.68c0,1.21-0.78,2.29-1.93,2.67
			c-17.64,5.88-38.54,4.96-39.42,4.92c-0.94-0.04-1.79-0.55-2.28-1.36l-8.15-13.53l-6.28,13.45c-0.39,0.84-1.17,1.43-2.08,1.58
			C309.53,110.61,296.6,111.49,284.62,111.49z M380.22,100.58h0.02H380.22z"/>
	</g>
	<g>
		<path class="st4" d="M301.2,163.03c-8.95,0-15.49-9.25-15.77-9.65c-0.89-1.28-0.57-3.03,0.7-3.92c1.27-0.89,3.03-0.57,3.92,0.7
			c0.08,0.11,5.17,7.24,11.14,7.24c0.04,0,0.09,0,0.13,0c3.34-0.06,6.59-2.47,9.65-7.16c0.85-1.3,2.6-1.67,3.9-0.82
			c1.3,0.85,1.67,2.6,0.82,3.9c-4.15,6.37-8.97,9.64-14.31,9.72C301.33,163.03,301.27,163.03,301.2,163.03z"/>
	</g>
</g>
</svg>
